<svg xmlns="http://www.w3.org/2000/svg" width="640" height="280" viewBox="0 0 640 280" role="img" aria-labelledby="title desc">
  <title id="title">Three-frame basketball action diagram</title>
  <desc id="desc">A generic three-frame half-court diagram showing player movement and screening action.</desc>
  <defs>
    <marker id="arrow" markerWidth="8" markerHeight="8" refX="7" refY="4" orient="auto">
      <path d="M0,0 L8,4 L0,8 Z" fill="#149d37"/>
    </marker>
  </defs>
  <rect width="640" height="280" rx="28" fill="#f6fbf4"/>
  
        <g transform="translate(20,28)">
          <rect x="0" y="0" width="184" height="224" rx="18" fill="#fffefa" stroke="#d8ead2" stroke-width="3"/>
          <path d="M92 0 V224 M24 112 H160" stroke="#d8ead2" stroke-width="2" opacity="0.75"/>
          <path d="M46 24 H138 V88 H46 Z" fill="none" stroke="#d8ead2" stroke-width="2"/>
          <circle cx="92" cy="78" r="25" fill="none" stroke="#d8ead2" stroke-width="2"/>
          <circle cx="92" cy="26" r="6" fill="#f08a24"/>
          <text x="16" y="207" font-family="Arial, Helvetica, sans-serif" font-size="14" font-weight="800" fill="#6c746c">FRAME 1</text>
        <circle cx="49" cy="172" r="13" fill="#149d37"/><text x="49" y="177" text-anchor="middle" font-family="Arial" font-size="12" font-weight="800" fill="#fffefa">1</text><circle cx="90" cy="130" r="13" fill="#149d37"/><text x="90" y="135" text-anchor="middle" font-family="Arial" font-size="12" font-weight="800" fill="#fffefa">5</text><circle cx="137" cy="172" r="13" fill="#149d37"/><text x="137" y="177" text-anchor="middle" font-family="Arial" font-size="12" font-weight="800" fill="#fffefa">2</text><circle cx="64" cy="76" r="13" fill="#111315"/><text x="64" y="81" text-anchor="middle" font-family="Arial" font-size="12" font-weight="800" fill="#fffefa">3</text><circle cx="123" cy="76" r="13" fill="#111315"/><text x="123" y="81" text-anchor="middle" font-family="Arial" font-size="12" font-weight="800" fill="#fffefa">4</text><path d="M46.0 131.2 C61.8 103.2, 61.8 138.6, 77.6 120.6" fill="none" stroke="#149d37" stroke-width="5" stroke-linecap="round" marker-end="url(#arrow)"/></g>
        <g transform="translate(223,28)">
          <rect x="0" y="0" width="184" height="224" rx="18" fill="#fffefa" stroke="#d8ead2" stroke-width="3"/>
          <path d="M92 0 V224 M24 112 H160" stroke="#d8ead2" stroke-width="2" opacity="0.75"/>
          <path d="M46 24 H138 V88 H46 Z" fill="none" stroke="#d8ead2" stroke-width="2"/>
          <circle cx="92" cy="78" r="25" fill="none" stroke="#d8ead2" stroke-width="2"/>
          <circle cx="92" cy="26" r="6" fill="#f08a24"/>
          <text x="16" y="207" font-family="Arial, Helvetica, sans-serif" font-size="14" font-weight="800" fill="#6c746c">FRAME 2</text>
        <circle cx="44" cy="172" r="13" fill="#149d37"/><text x="44" y="177" text-anchor="middle" font-family="Arial" font-size="12" font-weight="800" fill="#fffefa">1</text><circle cx="96" cy="130" r="13" fill="#149d37"/><text x="96" y="135" text-anchor="middle" font-family="Arial" font-size="12" font-weight="800" fill="#fffefa">5</text><circle cx="132" cy="172" r="13" fill="#149d37"/><text x="132" y="177" text-anchor="middle" font-family="Arial" font-size="12" font-weight="800" fill="#fffefa">2</text><circle cx="70" cy="76" r="13" fill="#111315"/><text x="70" y="81" text-anchor="middle" font-family="Arial" font-size="12" font-weight="800" fill="#fffefa">3</text><circle cx="118" cy="76" r="13" fill="#111315"/><text x="118" y="81" text-anchor="middle" font-family="Arial" font-size="12" font-weight="800" fill="#fffefa">4</text><path d="M83.4 177.3 C96.3 149.3, 96.3 163.4, 109.2 145.4" fill="none" stroke="#149d37" stroke-width="5" stroke-linecap="round" marker-end="url(#arrow)"/></g>
        <g transform="translate(426,28)">
          <rect x="0" y="0" width="184" height="224" rx="18" fill="#fffefa" stroke="#d8ead2" stroke-width="3"/>
          <path d="M92 0 V224 M24 112 H160" stroke="#d8ead2" stroke-width="2" opacity="0.75"/>
          <path d="M46 24 H138 V88 H46 Z" fill="none" stroke="#d8ead2" stroke-width="2"/>
          <circle cx="92" cy="78" r="25" fill="none" stroke="#d8ead2" stroke-width="2"/>
          <circle cx="92" cy="26" r="6" fill="#f08a24"/>
          <text x="16" y="207" font-family="Arial, Helvetica, sans-serif" font-size="14" font-weight="800" fill="#6c746c">FRAME 3</text>
        <circle cx="48" cy="172" r="13" fill="#149d37"/><text x="48" y="177" text-anchor="middle" font-family="Arial" font-size="12" font-weight="800" fill="#fffefa">1</text><circle cx="91" cy="130" r="13" fill="#149d37"/><text x="91" y="135" text-anchor="middle" font-family="Arial" font-size="12" font-weight="800" fill="#fffefa">5</text><circle cx="136" cy="172" r="13" fill="#149d37"/><text x="136" y="177" text-anchor="middle" font-family="Arial" font-size="12" font-weight="800" fill="#fffefa">2</text><circle cx="65" cy="76" r="13" fill="#111315"/><text x="65" y="81" text-anchor="middle" font-family="Arial" font-size="12" font-weight="800" fill="#fffefa">3</text><circle cx="122" cy="76" r="13" fill="#111315"/><text x="122" y="81" text-anchor="middle" font-family="Arial" font-size="12" font-weight="800" fill="#fffefa">4</text><path d="M132.2 120.6 C148.1 92.6, 148.1 111.0, 163.9 93.0" fill="none" stroke="#149d37" stroke-width="5" stroke-linecap="round" marker-end="url(#arrow)"/></g>
</svg>
